<?xml version="1.0" encoding="UTF-8" standalone="no"?>
<!-- Created with Inkscape (http://www.inkscape.org/) -->

<svg
   xmlns:dc="http://purl.org/dc/elements/1.1/"
   xmlns:cc="http://creativecommons.org/ns#"
   xmlns:rdf="http://www.w3.org/1999/02/22-rdf-syntax-ns#"
   xmlns:svg="http://www.w3.org/2000/svg"
   xmlns="http://www.w3.org/2000/svg"
   version="1.1"
   width="250.00081"
   height="250.49689"
   id="svg3895">
  <defs
     id="defs3897" />
  <metadata
     id="metadata3900">
    <rdf:RDF>
      <cc:Work
         rdf:about="">
        <dc:format>image/svg+xml</dc:format>
        <dc:type
           rdf:resource="http://purl.org/dc/dcmitype/StillImage" />
        <dc:title></dc:title>
      </cc:Work>
    </rdf:RDF>
  </metadata>
  <g
     transform="translate(-156.72333,-277.69012)"
     id="layer1">
    <g
       transform="matrix(0.42904782,0,0,0.42904782,597.54315,28.802165)"
       id="g3874">
      <path
         d="m -448.26986,583.59069 -575.67094,0 0.6563,576.85781 73.23605,10e-5 0,-238.3961 163.13964,0 0,-62.62945 -163.64471,0 0,-214.15234 502.29835,0 z"
         id="path3078"
         style="fill:#ff0000;stroke:#000000;stroke-width:7;stroke-linecap:butt;stroke-linejoin:miter;stroke-miterlimit:4;stroke-opacity:1;stroke-dasharray:none" />
      <path
         d="m -448.50771,667.49406 -477.80215,0 0,167.68533 478.05469,0 0,-62.62946 -407.34401,0 0,-45.45687 407.09147,0 z"
         id="path3080"
         style="fill:#ff0000;stroke:#000000;stroke-width:7;stroke-linecap:butt;stroke-linejoin:miter;stroke-miterlimit:4;stroke-opacity:1;stroke-dasharray:none" />
      <path
         d="m -448.25517,859.42305 -305.31861,0 0,103.03556 -173.45037,-0.89286 0.20922,64.53245 478.42978,0 0,-63.63959 -232.27381,0 0,-42.42641 232.40379,0 z"
         id="path3082"
         style="fill:#ff0000;stroke:#000000;stroke-width:7;stroke-linecap:butt;stroke-linejoin:miter;stroke-miterlimit:4;stroke-opacity:1;stroke-dasharray:none" />
      <path
         d="m -926.81494,1051.352 478.30723,0 0,59.599 -232.33508,0 0,46.4671 -72.73099,0 0,-46.4671 -173.24116,0 z"
         id="path3084"
         style="fill:#ff0000;stroke:#000000;stroke-width:7;stroke-linecap:butt;stroke-linejoin:miter;stroke-miterlimit:4;stroke-opacity:1;stroke-dasharray:none" />
    </g>
  </g>
</svg>
